<svg width="298" height="755" viewBox="0 0 298 755" fill="none" xmlns="http://www.w3.org/2000/svg">
<path fill-rule="evenodd" clip-rule="evenodd" d="M480.372 139.851C551.44 155.464 647.762 116.889 690.233 175.954C732.843 235.212 672.554 315.538 658.131 387.061C647.255 440.991 639.823 492.803 616.306 542.539C587.585 603.283 569.22 680.162 507.247 706.175C444.831 732.373 373.56 699.169 312.414 670.097C257.82 644.141 199.277 608.968 181.388 551.246C164.491 496.723 234.706 446.556 225.672 390.197C213.525 314.424 104.547 264.508 123.506 190.154C140.756 122.499 232.879 100.424 302.044 90.6744C364.628 81.8529 418.636 126.289 480.372 139.851Z" fill="#ECF0F3" fill-opacity="0.42"/>
</svg>
