<svg width="18" height="18" viewBox="0 0 18 18" fill="none" xmlns="http://www.w3.org/2000/svg">
  <path fill-rule="evenodd" clip-rule="evenodd" d="M12.3082 2.07646L12.3089 2.63868C14.3749 2.8006 15.7396 4.2084 15.7418 6.36731L15.75 12.6866C15.7529 15.0405 14.2742 16.4887 11.9039 16.4925L6.11391 16.5C3.7584 16.503 2.26111 15.0202 2.25815 12.6597L2.25 6.41454C2.24704 4.24138 3.56364 2.83733 5.62963 2.64768L5.62889 2.08546C5.62815 1.75562 5.87251 1.5075 6.19833 1.5075C6.52415 1.50675 6.76851 1.75412 6.76925 2.08396L6.76999 2.6087L11.1685 2.6027L11.1678 2.07796C11.1671 1.74813 11.4114 1.50075 11.7372 1.5C12.0557 1.49925 12.3074 1.74663 12.3082 2.07646ZM3.3911 6.64617L14.6022 6.63118V6.36881C14.5704 4.75711 13.7617 3.91154 12.3104 3.7856L12.3111 4.36281C12.3111 4.68515 12.0601 4.94077 11.7417 4.94077C11.4159 4.94152 11.1708 4.68665 11.1708 4.36431L11.17 3.75711L6.77147 3.76311L6.77221 4.36956C6.77221 4.69265 6.52858 4.94752 6.20277 4.94752C5.87695 4.94827 5.63184 4.69415 5.63184 4.37106L5.6311 3.79385C4.18714 3.93852 3.38814 4.7871 3.39036 6.41303L3.3911 6.64617ZM11.43 10.0532V10.0615C11.4374 10.4063 11.7188 10.6679 12.0601 10.6604C12.3934 10.6522 12.6592 10.3665 12.6518 10.0217C12.6362 9.69189 12.3689 9.42277 12.0364 9.42352C11.6958 9.43102 11.4292 9.70838 11.43 10.0532ZM12.0416 13.419C11.7009 13.4115 11.4262 13.1274 11.4255 12.7826C11.4181 12.4378 11.6913 12.1522 12.0319 12.1439H12.0393C12.3874 12.1439 12.6695 12.428 12.6695 12.7804C12.6702 13.1327 12.3889 13.4183 12.0416 13.419ZM8.37903 10.0652C8.39384 10.41 8.67597 10.6791 9.01659 10.6642C9.34982 10.6484 9.61566 10.3636 9.60085 10.0187C9.5927 9.68139 9.31872 9.41902 8.98549 9.41977C8.64487 9.43477 8.37829 9.72037 8.37903 10.0652ZM9.01957 13.3853C8.67894 13.4003 8.39755 13.1312 8.382 12.7863C8.382 12.4415 8.64784 12.1567 8.98847 12.1409C9.32169 12.1402 9.59642 12.4025 9.60382 12.7391C9.61937 13.0847 9.35279 13.3696 9.01957 13.3853ZM5.32821 10.0914C5.34302 10.4363 5.62514 10.7061 5.96577 10.6904C6.299 10.6754 6.56483 10.3898 6.54928 10.045C6.54188 9.70763 6.26789 9.44526 5.93393 9.44601C5.5933 9.46101 5.32746 9.74661 5.32821 10.0914ZM5.96874 13.3891C5.62812 13.4048 5.34673 13.1349 5.33118 12.7901C5.33044 12.4453 5.59702 12.1597 5.93764 12.1447C6.27087 12.1439 6.54559 12.4063 6.553 12.7436C6.56855 13.0885 6.30271 13.3741 5.96874 13.3891Z" fill="#6C717F"/>
</svg>
