<svg width="20" height="20" viewBox="0 0 20 20" fill="none" xmlns="http://www.w3.org/2000/svg">
  <path d="M16.1697 5.9255C16.1697 5.9082 16.1697 5.89522 16.1697 5.87792C16.1611 5.64004 15.9578 5.45838 15.7199 5.47136H7.69674C7.67944 5.47136 7.66646 5.47136 7.64916 5.47136C7.41128 5.48001 7.22962 5.68329 7.2426 5.92117C7.2426 5.93847 7.2426 5.95145 7.2426 5.96875C7.25125 6.20663 7.45453 6.38829 7.69241 6.37531H15.7156C15.7286 6.37531 15.7459 6.37531 15.7632 6.37531C16.001 6.36666 16.1827 6.16338 16.1697 5.9255Z" fill="#F53838"/>
  <path d="M12.0997 3.66341C12.0997 3.64611 12.0997 3.63314 12.0997 3.61584C12.0911 3.37795 11.8878 3.1963 11.6499 3.20927H7.69674C7.67944 3.20927 7.66646 3.20927 7.64916 3.20927C7.41128 3.21792 7.22962 3.4212 7.2426 3.65909C7.2426 3.67639 7.2426 3.68936 7.2426 3.70666C7.25125 3.94455 7.45453 4.1262 7.69241 4.11323H11.6456C11.6629 4.11323 11.6802 4.11323 11.6932 4.11323C11.9311 4.10458 12.1127 3.9013 12.0997 3.66341Z" fill="#F53838"/>
  <path d="M16.1006 0H3.73934C2.04388 0 1.20913 0.878007 1.1875 2.10203C1.1875 2.11068 1.1875 2.11933 1.1875 2.12365V9.35531C1.1875 10.3501 2.04821 11.0724 3.03867 11.0724H4.80333V14.8699C4.77738 15.869 5.56888 16.6994 6.56367 16.7211C6.57232 16.7211 6.58097 16.7211 6.5853 16.7211H11.1051V19.567C11.1181 19.7357 11.2219 19.8827 11.3776 19.9519C11.5246 20.0125 11.6976 19.9995 11.8274 19.9087L13.6353 18.5549L15.4432 19.9087C15.534 19.9606 15.6335 19.9952 15.7373 19.9995C15.8022 20.0038 15.8714 19.9779 15.919 19.9303C16.066 19.8654 16.1698 19.727 16.1915 19.567V16.7211H16.9138C17.9432 16.7211 18.7866 15.8993 18.8125 14.8699V2.57779C18.8125 1.10724 17.5669 0 16.1006 0ZM4.79901 2.12365V10.1684H3.03867C2.54127 10.1684 2.09146 9.85271 2.09146 9.35531V2.12365C2.11741 1.38837 2.70996 0.916933 3.44523 0.903958H3.69177C4.33189 0.938559 4.82496 1.48353 4.79901 2.12365ZM15.3091 18.6414L13.9554 17.6034C13.7824 17.4909 13.5618 17.4909 13.3888 17.6034L12.035 18.6414L11.9917 14.6623C12.5064 14.9391 13.0817 15.0905 13.6656 15.0905C14.2495 15.0905 14.8247 14.9434 15.3394 14.6623L15.3091 18.6414ZM13.7002 14.1865C13.6872 14.1908 13.6742 14.1908 13.6569 14.1908C12.1734 14.2038 10.958 13.0101 10.9451 11.5265C10.9321 10.043 12.1258 8.82764 13.6094 8.81467C15.0929 8.80169 16.3083 9.99544 16.3212 11.479C16.3212 11.4919 16.3212 11.5092 16.3212 11.5222C16.3342 12.9841 15.1621 14.1779 13.7002 14.1865ZM16.9613 15.8171H16.239V14.0092C17.5928 12.5905 17.5409 10.3458 16.1223 8.992C14.7036 7.63823 12.4589 7.69013 11.1051 9.10878C9.80321 10.4712 9.79456 12.6122 11.0835 13.9876V15.8171H6.5853C6.0879 15.8041 5.68999 15.3932 5.70296 14.8915C5.70296 14.8829 5.70296 14.8742 5.70296 14.8656V2.12365C5.70296 1.62626 5.54293 1.12887 5.27477 0.903958H16.1006C17.0738 0.903958 17.9086 1.60463 17.9086 2.57779V14.8699C17.8869 15.3846 17.4717 15.7955 16.9613 15.8171Z" fill="#F53838"/>
</svg>
