<svg width="18" height="19" viewBox="0 0 18 19" fill="none" xmlns="http://www.w3.org/2000/svg">
<path d="M15.4612 9.0806C15.4559 8.60599 15.4542 8.12786 15.4524 7.6515H14.0321C14.0268 8.12611 14.0233 8.60247 14.0198 9.0806C13.5417 9.08236 13.0671 9.08587 12.5925 9.09114V10.5132C13.0671 10.5185 13.5452 10.522 14.0198 10.5273C14.0251 11.0019 14.0251 11.4783 14.0286 11.9529H15.4507C15.4524 11.4783 15.4559 11.0019 15.4595 10.5238C15.9376 10.5185 16.4122 10.5167 16.8868 10.5115V9.08939C16.4139 9.08587 15.9358 9.08587 15.4612 9.0806ZM6.1448 9.08763C6.14305 9.6554 6.1448 10.2249 6.14656 10.7927C7.0993 10.8243 8.05379 10.8103 9.00652 10.8243C8.58641 12.939 5.71238 13.6245 4.19188 12.2429C2.62742 11.0318 2.70125 8.37571 4.32723 7.25071C5.46453 6.34368 7.07996 6.56693 8.21727 7.35267C8.66375 6.93958 9.08211 6.49661 9.48465 6.03958C8.53895 5.28548 7.37879 4.74759 6.1448 4.80384C3.56785 4.71771 1.20008 6.97474 1.15789 9.55345C0.992657 11.6611 2.37781 13.7265 4.3325 14.4718C6.28016 15.2224 8.77801 14.7109 10.0225 12.9601C10.8434 11.8544 11.021 10.4306 10.9243 9.0929C9.32996 9.0806 7.73738 9.08236 6.1448 9.08763Z" fill="#959595"/>
</svg>
