<svg width="18" height="19" viewBox="0 0 18 19" fill="none" xmlns="http://www.w3.org/2000/svg">
<path d="M9.0013 6.20638C7.00619 6.20638 5.39603 7.81654 5.39603 9.81165C5.39603 11.8068 7.00619 13.4169 9.0013 13.4169C10.9964 13.4169 12.6066 11.8068 12.6066 9.81165C12.6066 7.81654 10.9964 6.20638 9.0013 6.20638ZM9.0013 12.1548C7.71107 12.1548 6.65814 11.1019 6.65814 9.81165C6.65814 8.52142 7.71107 7.46849 9.0013 7.46849C10.2915 7.46849 11.3445 8.52142 11.3445 9.81165C11.3445 11.1019 10.2915 12.1548 9.0013 12.1548ZM12.7542 5.21849C12.2884 5.21849 11.9122 5.59466 11.9122 6.06048C11.9122 6.5263 12.2884 6.90248 12.7542 6.90248C13.2201 6.90248 13.5962 6.52806 13.5962 6.06048C13.5964 5.94987 13.5747 5.84032 13.5324 5.7381C13.4902 5.63589 13.4281 5.54301 13.3499 5.4648C13.2717 5.38658 13.1788 5.32457 13.0766 5.2823C12.9744 5.24004 12.8648 5.21835 12.7542 5.21849ZM16.029 9.81165C16.029 8.84134 16.0378 7.87982 15.9833 6.91126C15.9288 5.78626 15.6722 4.78783 14.8495 3.96517C14.0251 3.14076 13.0285 2.88587 11.9035 2.83138C10.9331 2.77689 9.97162 2.78568 9.00306 2.78568C8.03275 2.78568 7.07123 2.77689 6.10267 2.83138C4.97767 2.88587 3.97923 3.14251 3.15658 3.96517C2.33216 4.78959 2.07728 5.78626 2.02279 6.91126C1.9683 7.88158 1.97709 8.8431 1.97709 9.81165C1.97709 10.7802 1.9683 11.7435 2.02279 12.712C2.07728 13.837 2.33392 14.8355 3.15658 15.6581C3.98099 16.4826 4.97767 16.7374 6.10267 16.7919C7.07298 16.8464 8.03451 16.8376 9.00306 16.8376C9.97337 16.8376 10.9349 16.8464 11.9035 16.7919C13.0285 16.7374 14.0269 16.4808 14.8495 15.6581C15.674 14.8337 15.9288 13.837 15.9833 12.712C16.0396 11.7435 16.029 10.782 16.029 9.81165ZM14.4822 13.9566C14.3538 14.2765 14.1992 14.5156 13.9513 14.7617C13.7035 15.0095 13.4661 15.1642 13.1462 15.2925C12.2216 15.6599 10.0261 15.5773 9.0013 15.5773C7.9765 15.5773 5.77923 15.6599 4.85462 15.2943C4.5347 15.166 4.29564 15.0113 4.04955 14.7634C3.80169 14.5156 3.64701 14.2783 3.51869 13.9583C3.15306 13.032 3.23568 10.8365 3.23568 9.81165C3.23568 8.78685 3.15306 6.58958 3.51869 5.66498C3.64701 5.34505 3.80169 5.10599 4.04955 4.8599C4.2974 4.6138 4.5347 4.45736 4.85462 4.32904C5.77923 3.96341 7.9765 4.04603 9.0013 4.04603C10.0261 4.04603 12.2234 3.96341 13.148 4.32904C13.4679 4.45736 13.707 4.61205 13.9531 4.8599C14.2009 5.10775 14.3556 5.34505 14.4839 5.66498C14.8495 6.58958 14.7669 8.78685 14.7669 9.81165C14.7669 10.8365 14.8495 13.032 14.4822 13.9566Z" fill="#959595"/>
</svg>
