<svg width="18" height="19" viewBox="0 0 18 19" fill="none" xmlns="http://www.w3.org/2000/svg">
<path d="M14.7247 6.80931C14.7345 6.94056 14.7345 7.07106 14.7345 7.20156C14.7345 11.1953 11.6947 15.7973 6.1395 15.7973C4.428 15.7973 2.838 15.3016 1.5 14.4406C1.743 14.4683 1.977 14.4781 2.22975 14.4781C3.58949 14.4813 4.91073 14.0267 5.9805 13.1873C5.35007 13.1759 4.73893 12.9679 4.23243 12.5924C3.72593 12.2168 3.34934 11.6925 3.15525 11.0926C3.342 11.1203 3.5295 11.1391 3.726 11.1391C3.99675 11.1391 4.269 11.1016 4.52175 11.0363C3.83757 10.8982 3.22236 10.5273 2.78071 9.98682C2.33907 9.44632 2.09827 8.76954 2.09925 8.07156V8.03406C2.502 8.25831 2.96925 8.39856 3.46425 8.41731C3.04957 8.14175 2.70954 7.76782 2.4745 7.3289C2.23947 6.88997 2.11673 6.3997 2.11725 5.90181C2.11725 5.34081 2.2665 4.82631 2.52825 4.37781C3.28735 5.31157 4.23413 6.07548 5.30725 6.62005C6.38038 7.16462 7.55592 7.47772 8.75775 7.53906C8.71125 7.31406 8.68275 7.08081 8.68275 6.84681C8.68255 6.45003 8.76056 6.0571 8.91231 5.69049C9.06406 5.32387 9.28658 4.99076 9.56714 4.7102C9.84771 4.42963 10.1808 4.20711 10.5474 4.05536C10.914 3.90361 11.307 3.82561 11.7037 3.82581C12.5737 3.82581 13.359 4.19031 13.911 4.77981C14.5873 4.64902 15.2359 4.40212 15.828 4.05006C15.6026 4.74817 15.1303 5.34013 14.4998 5.71506C15.0996 5.64664 15.6858 5.4889 16.239 5.24706C15.8258 5.84938 15.3139 6.37756 14.7247 6.80931Z" fill="#959595"/>
</svg>
