<svg width="18" height="19" viewBox="0 0 18 19" fill="none" xmlns="http://www.w3.org/2000/svg">
<path d="M16.1842 5.95277C16.2893 5.60402 16.1842 5.34827 15.6877 5.34827H14.043C13.6245 5.34827 13.4332 5.56952 13.3282 5.81252C13.3282 5.81252 12.492 7.85177 11.307 9.17402C10.9245 9.55877 10.7498 9.68027 10.5413 9.68027C10.437 9.68027 10.2855 9.55877 10.2855 9.21002V5.95277C10.2855 5.53427 10.1648 5.34827 9.816 5.34827H7.2315C6.9705 5.34827 6.813 5.54177 6.813 5.72627C6.813 6.12227 7.4055 6.21377 7.46625 7.32977V9.75077C7.46625 10.281 7.371 10.3778 7.161 10.3778C6.60375 10.3778 5.24775 8.33102 4.443 5.98802C4.28625 5.53277 4.128 5.34902 3.708 5.34902H2.064C1.59375 5.34902 1.5 5.57027 1.5 5.81327C1.5 6.24977 2.05725 8.40977 4.09575 11.2665C5.45475 13.2173 7.368 14.2748 9.111 14.2748C10.1558 14.2748 10.2847 14.04 10.2847 13.635V12.1605C10.2847 11.691 10.3845 11.5965 10.7153 11.5965C10.9583 11.5965 11.3767 11.7195 12.3525 12.6593C13.467 13.7738 13.6515 14.274 14.2778 14.274H15.9218C16.3912 14.274 16.626 14.0393 16.491 13.5758C16.3433 13.1145 15.8108 12.4433 15.1042 11.649C14.7203 11.196 14.1465 10.7085 13.9718 10.4648C13.728 10.1505 13.7985 10.0118 13.9718 9.73277C13.9725 9.73352 15.9757 6.91202 16.1842 5.95277Z" fill="#959595"/>
</svg>
