<svg width="21" height="21" viewBox="0 0 21 21" fill="none" xmlns="http://www.w3.org/2000/svg">
  <circle cx="10.5" cy="10.5" r="10.5" fill="#DBDBDB"/>
  <path fill-rule="evenodd" clip-rule="evenodd" d="M13.4199 8.81002V7.95419C13.4199 6.37253 12.1099 5.08337 10.5082 5.08337H10.4917C8.89 5.08337 7.58003 6.36224 7.57452 7.95419V8.81002C7.83321 8.7239 8.10842 8.67461 8.39463 8.67461H8.40014V7.94336C8.40564 6.81182 9.34133 5.89587 10.4972 5.89587H10.5027C11.6586 5.89587 12.5942 6.82212 12.5942 7.95419V8.67461H12.5998C12.886 8.67461 13.1667 8.7239 13.4199 8.81002ZM13.42 8.81006C13.1668 8.72393 12.8861 8.67464 12.5998 8.67464H8.39473C8.10852 8.67464 7.83331 8.72393 7.57462 8.81006C6.6004 9.14589 5.89587 10.0564 5.89587 11.1338V13.4575C5.89587 14.8117 7.01871 15.9167 8.39473 15.9167H12.5998C13.9814 15.9167 15.1042 14.8117 15.1042 13.4575V11.1338C15.1042 10.0564 14.3997 9.14589 13.42 8.81006ZM10.9815 12.8943C10.9815 13.1597 10.7668 13.3709 10.4971 13.3709C10.2329 13.3709 10.0183 13.1597 10.0183 12.8943V11.6918C10.0183 11.4323 10.2329 11.2205 10.4971 11.2205C10.7668 11.2205 10.9815 11.4323 10.9815 11.6918V12.8943Z" fill="#0B132A"/>
</svg>
