<svg width="18" height="18" viewBox="0 0 18 18" fill="none" xmlns="http://www.w3.org/2000/svg">
  <path fill-rule="evenodd" clip-rule="evenodd" d="M13.0429 6.65995V5.47498C13.0429 3.28499 11.2291 1.5 9.01139 1.5H8.98852C6.7708 1.5 4.957 3.27074 4.94937 5.47498V6.65997C5.30756 6.54073 5.68862 6.47248 6.08491 6.47248H6.09253V5.45998C6.10015 3.89324 7.39573 2.62499 8.99615 2.62499H9.00377C10.6042 2.62499 11.8998 3.90749 11.8998 5.47498V6.47248H11.9074C12.056 6.47248 12.2035 6.48207 12.3484 6.50036C12.2036 6.48208 12.0561 6.47249 11.9075 6.47249H6.08504C5.68875 6.47249 5.3077 6.54074 4.94951 6.65999C3.60058 7.12499 2.62509 8.38573 2.62509 9.87748V13.095C2.62509 14.9699 4.17978 16.4999 6.08504 16.4999H11.9075C13.8204 16.4999 15.3751 14.9699 15.3751 13.095V9.87748C15.3751 8.38573 14.3996 7.12499 13.0431 6.65999C13.043 6.65998 13.043 6.65996 13.0429 6.65995ZM9.66668 12.315C9.66668 12.6825 9.36946 12.975 8.99603 12.975C8.63022 12.975 8.333 12.6825 8.333 12.315V10.65C8.333 10.2907 8.63022 9.9975 8.99603 9.9975C9.36946 9.9975 9.66668 10.2907 9.66668 10.65V12.315Z" fill="#0B132A"/>
</svg>
