<svg width="22" height="24" viewBox="0 0 22 24" fill="none" xmlns="http://www.w3.org/2000/svg">
  <path d="M18.3208 0H3.48726C1.45271 0 0.451 1.05361 0.425049 2.52243C0.425049 2.53281 0.425049 2.54319 0.425049 2.54838V11.2264C0.425049 12.4201 1.4579 13.2869 2.64645 13.2869H4.76405V17.8439C4.7329 19.0428 5.68271 20.0393 6.87645 20.0653C6.88683 20.0653 6.89721 20.0653 6.9024 20.0653H12.3261V23.4804C12.3417 23.6828 12.4663 23.8593 12.6531 23.9423C12.8296 24.015 13.0372 23.9994 13.1929 23.8904L15.3624 22.2659L17.5319 23.8904C17.6409 23.9527 17.7603 23.9942 17.8848 23.9994C17.9627 24.0046 18.0457 23.9735 18.1028 23.9164C18.2793 23.8385 18.4039 23.6724 18.4298 23.4804V20.0653H19.2966C20.5318 20.0653 21.5439 19.0791 21.5751 17.8439V3.09335C21.5751 1.32869 20.0803 0 18.3208 0ZM4.75886 2.54838V12.2021H2.64645C2.04958 12.2021 1.5098 11.8232 1.5098 11.2264V2.54838C1.54094 1.66605 2.25199 1.10032 3.13433 1.08475H3.43017C4.19832 1.12627 4.79 1.78023 4.75886 2.54838ZM17.371 22.3697L15.7465 21.1241C15.5389 20.9891 15.2742 20.9891 15.0666 21.1241L13.442 22.3697L13.3901 17.5947C14.0078 17.9269 14.6981 18.1086 15.3987 18.1086C16.0994 18.1086 16.7897 17.9321 17.4073 17.5947L17.371 22.3697ZM15.4403 17.0238C15.4247 17.029 15.4091 17.029 15.3884 17.029C13.6081 17.0446 12.1497 15.6121 12.1341 13.8319C12.1185 12.0516 13.551 10.5932 15.3313 10.5776C17.1115 10.562 18.5699 11.9945 18.5855 13.7748C18.5855 13.7903 18.5855 13.8111 18.5855 13.8267C18.6011 15.5809 17.1945 17.0134 15.4403 17.0238ZM19.3537 18.9805H18.4869V16.811C20.1114 15.1086 20.0492 12.4149 18.3468 10.7904C16.6444 9.16587 13.9507 9.22815 12.3261 10.9305C10.7639 12.5654 10.7535 15.1346 12.3002 16.7851V18.9805H6.9024C6.30553 18.9649 5.82803 18.4719 5.84361 17.8698C5.84361 17.8594 5.84361 17.8491 5.84361 17.8387V2.54838C5.84361 1.95151 5.65157 1.35464 5.32978 1.08475H18.3208C19.4886 1.08475 20.4903 1.92556 20.4903 3.09335V17.8439C20.4644 18.4615 19.9661 18.9546 19.3537 18.9805Z" fill="#F53838"/>
</svg>
