<svg width="18" height="18" viewBox="0 0 18 18" fill="none" xmlns="http://www.w3.org/2000/svg">
  <g clip-path="url(#clip0)">
    <path d="M7.66348 7.08704H5.39593C5.20127 7.08704 5.04346 7.24485 5.04346 7.43951C5.04346 7.63417 5.20127 7.79199 5.39593 7.79199H7.27845C7.11251 8.68014 6.33151 9.35454 5.39593 9.35454C4.33995 9.35454 3.48087 8.49547 3.48087 7.43948C3.48087 6.38349 4.33995 5.52441 5.39593 5.52441C5.90746 5.52441 6.38836 5.72364 6.75008 6.08533C6.88775 6.223 7.11093 6.223 7.24853 6.08533C7.3862 5.94766 7.3862 5.72449 7.24853 5.58688C6.75363 5.09199 6.09572 4.81946 5.3959 4.81946C3.95119 4.81946 2.77588 5.99477 2.77588 7.43948C2.77588 8.88419 3.95119 10.0595 5.3959 10.0595C6.84061 10.0595 8.01592 8.88419 8.01592 7.43948C8.01595 7.24485 7.85814 7.08704 7.66348 7.08704Z" fill="#F53838"/>
    <path d="M16.5351 3.24283H9.48262L8.53569 0.38269C8.48795 0.238409 8.35305 0.140991 8.20107 0.140991H1.46493C0.657176 0.140991 0 0.798167 0 1.60592V13.2923C0 14.1 0.657176 14.7572 1.46493 14.7572H8.60674L9.55853 17.6178C9.60648 17.7619 9.74116 17.859 9.89297 17.859H16.5351C17.3429 17.859 18 17.2019 18 16.3941V4.70775C18 3.9 17.3428 3.24283 16.5351 3.24283ZM1.46493 14.0522C1.0459 14.0522 0.704988 13.7113 0.704988 13.2923V1.60592C0.704988 1.18689 1.0459 0.845979 1.46493 0.845979H7.94647L10.4317 8.3524C10.4318 8.35293 10.432 8.35338 10.4322 8.35391L12.3189 14.0522H1.46493ZM11.8634 9.9589C11.8917 9.99792 12.244 10.4819 12.79 11.1565C12.6361 11.3589 12.4731 11.5599 12.301 11.7555L11.2564 8.60053H14.3305C14.1127 9.05865 13.735 9.78927 13.2163 10.56C12.7399 9.96512 12.4405 9.55376 12.4341 9.54504C12.3198 9.38747 12.0995 9.35235 11.9419 9.46664C11.7843 9.5809 11.7492 9.80126 11.8634 9.9589ZM9.34966 14.7572H11.9921L10.0408 16.8344L9.34966 14.7572ZM17.295 16.3941C17.295 16.8131 16.9541 17.154 16.5351 17.154H10.7077L13.0637 14.646L13.0636 14.6459C13.0739 14.635 13.0836 14.6234 13.0925 14.6111C13.1588 14.5194 13.1769 14.4013 13.1414 14.2939L12.5547 12.522C12.8033 12.2616 13.0356 11.9896 13.251 11.7146C13.7185 12.2691 14.2718 12.8904 14.8603 13.479C14.9291 13.5478 15.0194 13.5822 15.1096 13.5822C15.1997 13.5822 15.29 13.5478 15.3588 13.479C15.4965 13.3413 15.4965 13.1181 15.3588 12.9805C14.7449 12.3667 14.163 11.7063 13.6823 11.1302C14.4294 10.0578 14.9139 9.03826 15.1073 8.60057H15.8616C16.0562 8.60057 16.2141 8.44275 16.2141 8.24809C16.2141 8.05343 16.0562 7.89562 15.8616 7.89562H14.8698C14.8692 7.89562 14.8685 7.89562 14.8679 7.89562H13.5352V7.26115C13.5352 7.06649 13.3774 6.90867 13.1827 6.90867C12.9881 6.90867 12.8302 7.06649 12.8302 7.26115V7.89558H11.023L9.71596 3.94781H16.535C16.9541 3.94781 17.295 4.28873 17.295 4.70775V16.3941H17.295Z" fill="#F53838"/>
  </g>
  <defs>
    <clipPath id="clip0">
      <rect width="18" height="18" fill="white"/>
    </clipPath>
  </defs>
</svg>
